<?xml version="1.0" encoding="utf-8"?>
<!-- Generator: Adobe Illustrator 16.0.4, SVG Export Plug-In . SVG Version: 6.00 Build 0)  -->
<!DOCTYPE svg PUBLIC "-//W3C//DTD SVG 1.1//EN" "http://www.w3.org/Graphics/SVG/1.1/DTD/svg11.dtd">
<svg version="1.1" id="Layer_1" xmlns="http://www.w3.org/2000/svg" xmlns:xlink="http://www.w3.org/1999/xlink" x="0px" y="0px"
	 width="60.453px" height="128px" viewBox="0 0 60.453 128" enable-background="new 0 0 60.453 128" xml:space="preserve">
<g>
	<g>
		<path fill="none" d="M24.066,87.071c-12.967,0-20.288-13.004-20.288-32.615C3.778,33.588,17.06,8,37.87,8
			c7.529,0,13.282,4.929,13.282,13.003c0,11.43-12.654,21.184-21.753,21.184c-2.51,0-4.602-1.574-4.602-5.034
			c0-1.468,0.419-3.776,1.151-3.776s0.941,1.049,3.974,1.049c5.333,0,12.968-6.187,12.968-12.899c0-2.412-1.569-5.873-6.379-5.873
			c-13.073,0-24.054,20.345-24.054,38.697c0,15.102,5.124,24.54,11.817,24.54c10.667,0,16.105-14.473,16.105-23.072
			c0-1.049-0.209-2.727-0.209-3.461c0-1.992,1.568-2.097,3.347-2.097c1.882,0,5.438,1.678,5.438,3.985
			c-0.522,5.663-0.627,10.591-0.627,15.835c0,4.928,0.104,10.068,0.104,16.464c1.986-0.313,3.869-0.42,5.542-0.523
			c4.916-0.315,2.301,8.181-1.358,8.284c-1.57,0-2.929,0.105-4.393,0.209C47.7,106.261,45.19,120,32.955,120
			c-7.111,0-11.712-5.35-11.712-12.375c0-10.696,9.516-16.359,19.242-19.295v-1.049c0-4.512-0.209-7.97-0.209-10.487
			C35.884,83.296,30.445,87.071,24.066,87.071z M40.171,96.091c-6.902,2.2-10.771,6.082-10.771,11.326
			c0,3.146,1.673,4.507,3.765,4.507C37.87,111.924,39.648,104.479,40.171,96.091z"/>
	</g>
</g>
</svg>
